<svg width="48" height="48" viewBox="0 0 48 48" fill="none" xmlns="http://www.w3.org/2000/svg">
<rect width="48" height="48" rx="24" fill="#FAE01A"/>
<path d="M18 14L15 18V32C15 32.5304 15.2107 33.0391 15.5858 33.4142C15.9609 33.7893 16.4696 34 17 34H31C31.5304 34 32.0391 33.7893 32.4142 33.4142C32.7893 33.0391 33 32.5304 33 32V18L30 14H18Z" stroke="black" stroke-width="2" stroke-linecap="round" stroke-linejoin="round"/>
<path d="M15 18H33" stroke="black" stroke-width="2" stroke-linecap="round" stroke-linejoin="round"/>
<path d="M28 22C28 23.0609 27.5786 24.0783 26.8284 24.8284C26.0783 25.5786 25.0609 26 24 26C22.9391 26 21.9217 25.5786 21.1716 24.8284C20.4214 24.0783 20 23.0609 20 22" stroke="black" stroke-width="2" stroke-linecap="round" stroke-linejoin="round"/>
</svg>
