<svg width="182" height="164" viewBox="0 0 182 164" fill="none" xmlns="http://www.w3.org/2000/svg">
<path d="M75 150.75C75 153.222 74.2669 155.639 72.8934 157.695C71.5199 159.75 69.5676 161.352 67.2835 162.298C64.9995 163.245 62.4861 163.492 60.0614 163.01C57.6366 162.527 55.4093 161.337 53.6612 159.589C51.913 157.841 50.7225 155.613 50.2402 153.189C49.7579 150.764 50.0054 148.251 50.9515 145.966C51.8976 143.682 53.4998 141.73 55.5554 140.357C57.611 138.983 60.0277 138.25 62.5 138.25C65.8152 138.25 68.9946 139.567 71.3388 141.911C73.683 144.255 75 147.435 75 150.75ZM143.75 138.25C141.278 138.25 138.861 138.983 136.805 140.357C134.75 141.73 133.148 143.682 132.202 145.966C131.255 148.251 131.008 150.764 131.49 153.189C131.973 155.613 133.163 157.841 134.911 159.589C136.659 161.337 138.887 162.527 141.311 163.01C143.736 163.492 146.249 163.245 148.534 162.298C150.818 161.352 152.77 159.75 154.143 157.695C155.517 155.639 156.25 153.222 156.25 150.75C156.25 147.435 154.933 144.255 152.589 141.911C150.245 139.567 147.065 138.25 143.75 138.25ZM180.977 40.0859L158.688 112.516C157.52 116.355 155.146 119.716 151.918 122.1C148.689 124.484 144.779 125.764 140.766 125.75H65.6797C61.6092 125.735 57.6531 124.401 54.404 121.949C51.1548 119.497 48.7874 116.059 47.6562 112.148L19.3906 13.25H6.25C4.5924 13.25 3.00269 12.5915 1.83058 11.4194C0.65848 10.2473 0 8.6576 0 7C0 5.3424 0.65848 3.75268 1.83058 2.58058C3.00269 1.40848 4.5924 0.75 6.25 0.75H19.3906C22.1048 0.759004 24.743 1.64678 26.9104 3.28045C29.0778 4.91412 30.6579 7.20581 31.4141 9.8125L37.75 32H175C175.978 31.9996 176.943 32.2288 177.816 32.6691C178.689 33.1094 179.447 33.7485 180.028 34.5351C180.61 35.3216 180.998 36.2336 181.163 37.1977C181.328 38.1618 181.264 39.151 180.977 40.0859ZM166.539 44.5H41.3203L59.6719 108.719C60.0452 110.024 60.8335 111.172 61.9174 111.99C63.0014 112.807 64.322 113.25 65.6797 113.25H140.766C142.103 113.25 143.405 112.822 144.481 112.027C145.557 111.233 146.349 110.114 146.742 108.836L166.539 44.5Z" fill="black"/>
</svg>
