<svg width="20" height="20" viewBox="0 0 14 14" fill="none" xmlns="http://www.w3.org/2000/svg">
<path d="M13.5625 6.38028L13.491 6.11494C13.4713 6.04297 13.0985 4.71297 12.0238 4.11797C13.0027 3.33025 13.2167 2.34194 13.2274 2.28988L13.2862 2.00135L13.0493 1.83663C12.9857 1.79244 12.397 1.40306 11.4006 1.40306C10.596 1.40306 9.76259 1.65681 8.92303 2.15731C8.11431 2.63944 7.91809 3.40485 7.74506 4.07991C7.525 4.94003 7.34606 5.62341 6.0375 5.93535C5.93048 5.92208 5.82378 5.9064 5.71747 5.88831L6.18209 5.45081C6.18209 5.45081 5.16359 5.77894 4.77947 5.45147C4.75759 5.43288 4.73331 5.39241 4.73506 5.30556C4.73856 5.14675 4.95206 3.71831 4.9525 3.30444C5.86359 3.09094 6.31291 2.15141 5.92528 1.91516C5.65163 1.74803 5.30753 2.18181 4.67053 2.32181C4.67644 2.23803 4.67819 2.149 4.66922 2.05013C4.61956 1.49756 5.39875 1.28385 5.30425 0.999033C5.18153 0.629564 4.179 0.857502 3.69709 1.67081C3.63878 1.77134 3.59392 1.87908 3.56366 1.99128C3.54134 1.90426 3.51185 1.81924 3.4755 1.7371C3.25128 1.23178 3.9515 0.775033 3.73734 0.529158C3.45406 0.204095 2.62981 0.777439 2.436 1.70888C2.39777 1.9042 2.403 2.10555 2.45131 2.29863C2.43206 2.28178 2.41609 2.26516 2.39509 2.2481C2.03897 1.96416 2.401 1.3626 2.13391 1.25147C1.75328 1.09244 1.40897 1.87491 1.61634 2.63988C1.66009 2.80088 1.74891 2.9621 1.86266 3.08525C1.14472 3.16641 0.614906 3.85744 0.5915 3.88894L0.4375 4.09325L0.687094 4.0646C0.689938 4.06416 0.748125 4.05803 0.837812 4.05803C0.963156 4.05803 1.13509 4.07291 1.30419 4.12366C1.06772 4.37391 0.845906 4.67841 0.707 5.03519C0.386531 5.85725 1.11388 5.43135 1.26197 5.44928C1.26197 5.44928 1.33219 5.55035 1.42056 5.61772C1.41969 5.66694 1.41597 5.7131 1.41597 5.76319C1.41597 6.40478 1.54875 8.25978 1.55444 8.33831L1.59425 8.89044L1.92412 8.46803C2.50928 10.1662 3.86859 11.5625 5.4635 11.9179C5.66256 12.1627 5.971 12.4206 6.32078 12.5298C5.78484 13.2921 4.79303 13.3676 4.79303 13.5625H7.83059C7.83059 13.361 7.29072 13.4092 6.91972 12.5348C7.29903 12.4068 7.64225 12.0313 7.86866 11.657C8.86681 11.2061 9.70944 10.3574 10.2587 9.33144C10.8356 9.5246 11.3328 9.55194 11.373 9.55369L11.6904 9.56747L11.7926 9.25706C11.8092 9.20675 12.1378 8.18978 12.0037 7.21722C12.8048 7.05688 13.3354 6.58547 13.3619 6.56163L13.5625 6.38028ZM1.47634 3.95303C1.28384 3.87647 1.08194 3.84738 0.922031 3.84081C1.13159 3.62906 1.52337 3.30969 1.97378 3.29766C1.90378 3.42038 1.83925 3.55272 1.78041 3.69469C1.68284 3.76994 1.58003 3.85635 1.47634 3.95303ZM1.84012 5.76297C1.84012 4.56903 2.13216 3.72728 2.54975 3.2001C2.56463 3.18828 2.58016 3.17735 2.59503 3.16335C2.71491 3.05069 3.01197 2.87328 3.19266 2.82341C3.32741 2.78644 3.66559 2.80131 3.87778 2.95181C4.07291 3.09116 4.21619 3.33528 4.501 3.34731C4.50997 3.34775 4.51828 3.34644 4.52725 3.34666C4.51916 3.74369 4.31506 5.10869 4.31113 5.29572C4.30697 5.47969 4.36428 5.63916 4.4765 5.75728C4.56838 5.85397 4.6935 5.92113 4.85056 5.9581L4.37828 6.28228L4.76569 6.75194L3.75856 6.6441L3.90819 7.54031L2.99338 6.86131L2.86737 7.89578L2.33888 7.23975L1.93988 7.75075C1.89875 7.13475 1.84012 6.174 1.84012 5.76297ZM7.6405 11.2816L7.57553 11.3098L7.53966 11.3724C7.27891 11.8285 6.91556 12.1468 6.65656 12.1468C6.36759 12.1468 5.99463 11.9162 5.74941 11.5865L5.70041 11.5207L5.62166 11.5047C4.05584 11.1902 2.72628 9.76588 2.23956 8.064L2.34391 7.93078L3.16619 8.95125L3.32522 7.64641L4.50209 8.52053L4.27175 7.13913L5.69712 7.29203C5.13188 7.72538 4.86238 8.38053 4.98684 9.06128C5.13231 9.85513 5.78134 10.4451 6.64016 10.5645C6.83878 10.5921 7.03544 10.6059 7.22509 10.6059C8.70647 10.6059 9.40756 9.77266 9.43644 9.737L9.51891 9.6366L9.47144 9.51431C9.35572 9.21594 9.121 8.99019 8.92806 8.84472C9.36381 8.48838 9.61734 8.00603 9.63003 7.98175L9.73853 7.77263L9.52766 7.67791C9.31678 7.58319 8.80119 7.51559 8.42166 7.47622C8.50205 7.3661 8.5766 7.25182 8.645 7.13388L8.78784 6.88253L8.51353 6.81166C8.49822 6.8075 8.13225 6.71453 7.62081 6.71453C6.98556 6.71453 6.42097 6.85344 5.943 7.12753C5.87169 7.16866 5.80672 7.21481 5.74219 7.26185L5.01025 6.37372L5.20297 6.2416C5.64944 6.32231 6.03487 6.3921 6.27791 6.3921C7.18287 6.3921 8.0325 6.12741 8.71544 5.91456C9.2015 5.76341 9.62128 5.63238 9.9295 5.63238C10.1498 5.63238 10.5184 5.63238 10.5184 6.68478C10.5182 8.62881 9.30781 10.5619 7.6405 11.2816ZM7.97759 7.87588C8.29609 7.89994 8.79222 7.95222 9.10766 8.01281C8.96722 8.21385 8.73425 8.49428 8.43522 8.65856L8.06597 8.862L8.44375 9.04903C8.44812 9.05122 8.82613 9.24131 9.01534 9.5526C8.79944 9.74903 8.22172 10.1684 7.22466 10.1684C7.05381 10.1684 6.87619 10.1557 6.69659 10.1308C5.87759 10.0168 5.49172 9.4616 5.40334 8.97969C5.29703 8.39803 5.5825 7.83475 6.14906 7.50969C6.56337 7.27235 7.05841 7.15181 7.62081 7.15181C7.80784 7.15181 7.97366 7.16581 8.10447 7.18244C8.03206 7.28481 7.94172 7.40119 7.84306 7.50313L7.51647 7.84088L7.97759 7.87588ZM11.4761 6.83244C11.8267 7.7921 11.3905 9.11641 11.3905 9.11641C11.3905 9.11641 10.9589 9.09672 10.4508 8.93725C10.7647 8.23069 10.9423 7.4585 10.9423 6.68478C10.9423 6.04538 10.8373 5.19488 9.92906 5.19488C9.55806 5.19488 9.11072 5.33444 8.5925 5.49566C8.18191 5.62363 7.7385 5.76056 7.2695 5.85135C8.45097 4.92275 7.86494 3.29328 9.135 2.53575C10.0327 2.00069 10.8012 1.84035 11.4002 1.84035C12.2957 1.84035 12.8118 2.19931 12.8118 2.19931C12.8118 2.19931 12.5274 3.58925 10.9211 4.27219C12.556 4.28641 13.0817 6.23241 13.0817 6.23241C13.0817 6.23241 12.4178 6.83244 11.4761 6.83244Z" fill="black"/>
</svg>
