<svg width="87" height="111" viewBox="0 0 87 111" fill="none" xmlns="http://www.w3.org/2000/svg">
<path fill-rule="evenodd" clip-rule="evenodd" d="M83.4342 0.500244C85.2266 0.589255 86.6665 2.14187 86.6665 4.02741V106.969C86.6665 108.911 85.1388 110.5 83.2717 110.5H4.06124C2.19417 110.5 0.666504 108.911 0.666504 106.969V4.02741C0.666504 2.14187 2.10638 0.589255 3.89877 0.500244H83.4343L83.4342 0.500244Z" fill="#FADF00"/>
<path fill-rule="evenodd" clip-rule="evenodd" d="M6.83419 3.95728H80.4986C82.2351 3.95728 83.6557 5.43514 83.6557 7.24145V103.754C83.6557 105.561 82.235 107.038 80.4986 107.038H6.83419C5.09777 107.038 3.67725 105.561 3.67725 103.754V7.24145C3.67725 5.43509 5.09782 3.95728 6.83419 3.95728Z" fill="#E96023"/>
<path fill-rule="evenodd" clip-rule="evenodd" d="M9.02499 6.33124H78.309C79.9414 6.33124 81.2774 7.72117 81.2774 9.4202V101.576C81.2774 103.275 79.9414 104.664 78.309 104.664H9.02499C7.39176 104.664 6.05566 103.275 6.05566 101.576V9.4202C6.05566 7.72117 7.39176 6.33124 9.02499 6.33124Z" fill="#356C2D"/>
<path fill-rule="evenodd" clip-rule="evenodd" d="M9.07354 78.4059H78.2598C78.6952 78.4059 79.0517 78.7759 79.0517 79.2297V98.4534C79.0517 98.9063 78.6952 99.2773 78.2598 99.2773H9.07354C8.63809 99.2773 8.28157 98.9063 8.28157 98.4534V79.2297C8.28157 78.7759 8.63809 78.4059 9.07354 78.4059ZM8.54273 77.904H78.7905C79.2471 77.904 79.6208 78.292 79.6208 78.767V98.9154C79.6208 99.3903 79.2471 99.7791 78.7905 99.7791H8.54273C8.08614 99.7791 7.7124 99.3903 7.7124 98.9154V78.767C7.7124 78.292 8.08614 77.904 8.54273 77.904Z" fill="#FADF00"/>
<path d="M65.717 91.5047L69.505 91.2427C69.5854 91.9185 69.7544 92.4342 70.0068 92.7855C70.4188 93.3582 71.0045 93.6459 71.7683 93.6459C72.3359 93.6459 72.7754 93.5004 73.0817 93.2061C73.3912 92.9108 73.5446 92.5701 73.5446 92.1829C73.5446 91.8152 73.4007 91.4844 73.1092 91.1933C72.8175 90.9021 72.1381 90.6312 71.0709 90.3693C69.3212 89.939 68.0765 89.3633 67.3315 88.6452C66.5801 87.9303 66.2042 87.0169 66.2042 85.9053C66.2042 85.1765 66.3963 84.4886 66.7811 83.8395C67.1658 83.1881 67.7426 82.678 68.5159 82.3072C69.2885 81.9364 70.3461 81.7518 71.6902 81.7518C73.3399 81.7518 74.597 82.0886 75.4624 82.7676C76.3279 83.4426 76.8423 84.5186 77.0073 85.9939L73.2561 86.2388C73.1569 85.5937 72.9466 85.1237 72.6275 84.8327C72.3062 84.5382 71.8645 84.3926 71.3023 84.3926C70.8396 84.3926 70.4878 84.5015 70.2533 84.7171C70.0186 84.9318 69.9013 85.197 69.9013 85.5077C69.9013 85.7329 69.9974 85.9346 70.1866 86.1167C70.3704 86.3054 70.8153 86.4778 71.519 86.6397C73.2624 87.0537 74.5101 87.4741 75.2616 87.8971C76.016 88.3207 76.5656 88.8437 76.9089 89.4724C77.2512 90.0985 77.4224 90.7996 77.4224 91.5772C77.4224 92.488 77.1943 93.3281 76.7368 94.0992C76.2771 94.8677 75.64 95.4533 74.8159 95.8502C73.9959 96.247 72.9613 96.4463 71.7114 96.4463C69.5168 96.4463 67.9961 95.9796 67.151 95.0491C66.3065 94.1194 65.8281 92.9378 65.7171 91.5048L65.717 91.5047ZM59.4735 90.7865L58.0639 85.6765L56.648 90.7865H59.4735H59.4735ZM60.3186 93.8641H55.7974L55.1476 96.2079H51.0753L55.9357 81.9891H60.3038L65.1433 96.2079H60.9644L60.3186 93.8641ZM38.1126 81.9891H42.2822L45.192 92.2228L48.0598 81.9891H52.1088L47.3147 96.2078H42.9913L38.1126 81.9891ZM33.442 90.7865L32.0317 85.6765L30.6158 90.7865H33.442H33.442ZM34.2864 93.8641H29.7652L29.1163 96.2079H25.0431L29.9035 81.9891H34.2716L39.1111 96.2079H34.9329L34.2864 93.8641ZM11.3354 81.9891H15.3211V86.9542H19.6859V81.9891H23.6904V96.2078H19.6859V90.4491H15.3211V96.2078H11.3354V81.9891Z" fill="#FEFEFE"/>
<path d="M22.893 9.52094L39.2775 12.8206L35.6888 32.1012L53.6302 35.7146L57.2186 16.4339L73.6766 19.7482L63.4013 74.968L46.9423 71.6531L51.1049 49.2876L33.1629 45.675L29.0013 68.0404L12.6167 64.7409L22.893 9.52094Z" fill="#FADF00"/>
</svg>
