<svg width="50" height="50" viewBox="0 0 50 50" fill="none" xmlns="http://www.w3.org/2000/svg">
<path d="M37.5 2.5H12.5C9.84784 2.5 7.3043 3.55357 5.42893 5.42893C3.55357 7.3043 2.5 9.84784 2.5 12.5V37.5C2.5 40.1522 3.55357 42.6957 5.42893 44.5711C7.3043 46.4464 9.84784 47.5 12.5 47.5H37.5C40.1522 47.5 42.6957 46.4464 44.5711 44.5711C46.4464 42.6957 47.5 40.1522 47.5 37.5V12.5C47.5 9.84784 46.4464 7.3043 44.5711 5.42893C42.6957 3.55357 40.1522 2.5 37.5 2.5Z" stroke="black" stroke-width="4" stroke-linejoin="round"/>
<path d="M25 35C27.6522 35 30.1957 33.9464 32.0711 32.0711C33.9464 30.1957 35 27.6522 35 25C35 22.3478 33.9464 19.8043 32.0711 17.9289C30.1957 16.0536 27.6522 15 25 15C22.3478 15 19.8043 16.0536 17.9289 17.9289C16.0536 19.8043 15 22.3478 15 25C15 27.6522 16.0536 30.1957 17.9289 32.0711C19.8043 33.9464 22.3478 35 25 35Z" stroke="black" stroke-width="4" stroke-linejoin="round"/>
<path d="M38.75 13.75C39.413 13.75 40.0489 13.4866 40.5178 13.0178C40.9866 12.5489 41.25 11.913 41.25 11.25C41.25 10.587 40.9866 9.95107 40.5178 9.48223C40.0489 9.01339 39.413 8.75 38.75 8.75C38.087 8.75 37.4511 9.01339 36.9822 9.48223C36.5134 9.95107 36.25 10.587 36.25 11.25C36.25 11.913 36.5134 12.5489 36.9822 13.0178C37.4511 13.4866 38.087 13.75 38.75 13.75Z" fill="black"/>
</svg>
