<svg width="227" height="53" viewBox="0 0 227 53" fill="none" xmlns="http://www.w3.org/2000/svg">
<path d="M88.0825 42.6062C88.0426 42.6503 88.011 42.6864 87.9811 42.7095C87.9454 42.7406 87.9096 42.7456 87.8651 42.7456C87.8032 42.7456 87.7487 42.7225 87.6864 42.6646C87.6244 42.6062 87.545 42.539 87.4469 42.4718C87.3484 42.4038 87.2332 42.3454 87.0952 42.287C86.9572 42.2282 86.7884 42.1967 86.5788 42.1967C86.3701 42.1967 86.1827 42.2328 86.0184 42.2963C85.8546 42.3635 85.7212 42.4538 85.6052 42.5701C85.4892 42.6826 85.4048 42.8128 85.347 42.9703C85.2892 43.1181 85.2577 43.2803 85.2577 43.46C85.2577 43.6305 85.2984 43.7741 85.3728 43.8955C85.4543 44.0081 85.5607 44.1122 85.6846 44.1924C85.8139 44.2777 85.9607 44.3541 86.1257 44.4171C86.2899 44.4847 86.4595 44.5519 86.6283 44.6191C86.7971 44.6821 86.9659 44.7586 87.1351 44.8438C87.2947 44.9249 87.4469 45.0236 87.5712 45.1537C87.6959 45.2705 87.8032 45.4187 87.883 45.5901C87.9582 45.7648 87.9982 45.9718 87.9982 46.2192C87.9982 46.5556 87.9404 46.8748 87.8294 47.1717C87.7138 47.4728 87.545 47.7336 87.3305 47.9583C87.1172 48.1784 86.859 48.3577 86.5568 48.4933C86.25 48.6277 85.9074 48.6907 85.5287 48.6907C85.1109 48.6907 84.733 48.6097 84.4042 48.4392C84.0745 48.2775 83.8076 48.0478 83.5947 47.7647L83.9186 47.3242C83.9414 47.2843 83.9764 47.262 84.0163 47.2347C84.0566 47.2129 84.0965 47.1986 84.146 47.1986C84.2079 47.1986 84.2703 47.2389 84.346 47.3111C84.4175 47.3876 84.5106 47.4686 84.617 47.5581C84.733 47.6484 84.8664 47.7286 85.0352 47.8101C85.1961 47.8819 85.4007 47.9222 85.6497 47.9222C85.8717 47.9222 86.0762 47.8819 86.2587 47.8101C86.4417 47.7336 86.5926 47.6391 86.7169 47.5047C86.8457 47.3783 86.9434 47.2217 87.0108 47.0461C87.0823 46.8618 87.1172 46.664 87.1172 46.4443C87.1172 46.2637 87.0723 46.1113 86.9971 45.9899C86.9173 45.8732 86.815 45.7698 86.6898 45.6846C86.5568 45.6035 86.4146 45.5321 86.25 45.4729C86.085 45.4108 85.9203 45.3427 85.7474 45.2844C85.5786 45.2209 85.4136 45.1537 85.2489 45.0685C85.0839 44.9874 84.9375 44.8938 84.8128 44.7674C84.6835 44.646 84.5821 44.4936 84.5019 44.318C84.4212 44.1383 84.3854 43.9178 84.3854 43.662C84.3854 43.3659 84.4391 43.0871 84.5413 42.8221C84.6444 42.552 84.7958 42.3181 84.9962 42.1077C85.1911 41.9049 85.4264 41.7432 85.7116 41.6172C85.9964 41.4954 86.3165 41.4332 86.6682 41.4332C87.0278 41.4332 87.3534 41.5097 87.6423 41.6399C87.9266 41.7835 88.1669 41.9771 88.3544 42.211L88.0825 42.6062Z" fill="#ED1C24"/>
<path d="M98.8208 42.2822H96.7479L95.9701 48.6095H95.0622L95.8271 42.2822H93.7451L93.8345 41.5095H98.9152L98.8208 42.2822Z" fill="#ED1C24"/>
<path d="M102.819 48.0701C102.819 47.9806 102.837 47.9004 102.869 47.8231C102.9 47.7517 102.944 47.6845 102.998 47.6253C103.051 47.572 103.113 47.527 103.189 47.4909C103.264 47.4598 103.345 47.4418 103.429 47.4418C103.514 47.4418 103.598 47.4598 103.674 47.4909C103.745 47.527 103.812 47.572 103.869 47.6253C103.923 47.6845 103.968 47.7517 104.003 47.8231C104.03 47.9004 104.048 47.9806 104.048 48.0701C104.048 48.1562 104.03 48.2414 104.003 48.3136C103.968 48.3901 103.923 48.4522 103.869 48.5064C103.812 48.5656 103.745 48.6097 103.674 48.6408C103.598 48.6681 103.514 48.6862 103.429 48.6862C103.345 48.6862 103.264 48.6681 103.189 48.6408C103.113 48.6097 103.051 48.5656 102.998 48.5064C102.944 48.4522 102.9 48.3901 102.869 48.3136C102.837 48.2414 102.819 48.1562 102.819 48.0701Z" fill="#ED1C24"/>
<path d="M121.107 47.9666L121.023 48.6096H117.534L117.615 47.9666H118.994L119.594 43.0467C119.598 42.9795 119.607 42.9165 119.62 42.8443C119.634 42.7729 119.643 42.7006 119.661 42.6284L118.402 43.7249C118.354 43.7564 118.309 43.7791 118.269 43.7884C118.224 43.7926 118.189 43.7972 118.153 43.7884C118.122 43.7791 118.086 43.7653 118.06 43.7472C118.033 43.73 118.015 43.7111 118.001 43.6892L117.789 43.3205L119.937 41.4915H120.631L119.848 47.9666H121.107Z" fill="#ED1C24"/>
<path d="M128.664 43.8375C128.664 44.21 128.762 44.5027 128.958 44.7136C129.145 44.9252 129.417 45.0327 129.764 45.0327C129.995 45.0327 130.203 44.9874 130.386 44.8979C130.573 44.8127 130.729 44.6867 130.862 44.5338C130.995 44.3856 131.094 44.215 131.165 44.0172C131.236 43.8152 131.271 43.6086 131.271 43.3927C131.271 43.2084 131.244 43.0379 131.192 42.8804C131.138 42.7275 131.067 42.5973 130.969 42.4848C130.871 42.3726 130.751 42.2874 130.613 42.2282C130.48 42.1698 130.329 42.1387 130.16 42.1387C129.945 42.1387 129.746 42.1837 129.564 42.2651C129.376 42.3453 129.221 42.4621 129.087 42.6154C128.958 42.7636 128.852 42.9383 128.78 43.15C128.709 43.3566 128.664 43.5855 128.664 43.8375ZM130.249 45.7702C130.324 45.6799 130.395 45.5905 130.462 45.5044C130.524 45.4191 130.591 45.3385 130.653 45.2574C130.471 45.3918 130.27 45.5002 130.057 45.5766C129.848 45.6488 129.626 45.6849 129.395 45.6849C129.176 45.6849 128.972 45.6488 128.78 45.5674C128.589 45.4871 128.42 45.3746 128.274 45.2213C128.131 45.0688 128.015 44.8891 127.935 44.6695C127.85 44.4528 127.811 44.21 127.811 43.9366C127.811 43.5855 127.872 43.2575 127.997 42.9564C128.122 42.6507 128.295 42.3815 128.518 42.1618C128.736 41.9363 128.994 41.7565 129.292 41.6268C129.59 41.4915 129.91 41.4285 130.257 41.4285C130.542 41.4285 130.795 41.4785 131.023 41.5726C131.244 41.6763 131.436 41.8107 131.592 41.9812C131.748 42.1568 131.868 42.3634 131.952 42.6061C132.037 42.8443 132.077 43.1051 132.077 43.3927C132.077 43.6397 132.054 43.8686 132.005 44.0752C131.957 44.2822 131.89 44.4847 131.801 44.6825C131.712 44.8761 131.601 45.0777 131.477 45.2704C131.343 45.4733 131.201 45.6757 131.036 45.8954L129.163 48.4122C129.119 48.471 129.056 48.5202 128.977 48.5554C128.887 48.5966 128.803 48.6096 128.7 48.6096H127.926L130.249 45.7702Z" fill="#ED1C24"/>
<path d="M139.046 43.8375C139.046 44.21 139.144 44.5027 139.335 44.7136C139.527 44.9252 139.793 45.0327 140.14 45.0327C140.372 45.0327 140.581 44.9874 140.764 44.8979C140.95 44.8127 141.111 44.6867 141.244 44.5338C141.373 44.3856 141.475 44.215 141.546 44.0172C141.618 43.8152 141.653 43.6086 141.653 43.3927C141.653 43.2084 141.626 43.0379 141.573 42.8804C141.52 42.7275 141.444 42.5973 141.342 42.4848C141.244 42.3726 141.128 42.2874 140.995 42.2282C140.856 42.1698 140.71 42.1387 140.541 42.1387C140.327 42.1387 140.123 42.1837 139.94 42.2651C139.758 42.3453 139.598 42.4621 139.465 42.6154C139.335 42.7636 139.233 42.9383 139.158 43.15C139.081 43.3566 139.046 43.5855 139.046 43.8375ZM140.63 45.7702C140.706 45.6799 140.772 45.5905 140.843 45.5044C140.906 45.4191 140.967 45.3385 141.03 45.2574C140.848 45.3918 140.648 45.5002 140.434 45.5766C140.225 45.6488 140.003 45.6849 139.776 45.6849C139.554 45.6849 139.349 45.6488 139.158 45.5674C138.966 45.4871 138.797 45.3746 138.655 45.2213C138.512 45.0688 138.397 44.8891 138.317 44.6695C138.228 44.4528 138.188 44.21 138.188 43.9366C138.188 43.5855 138.25 43.2575 138.379 42.9564C138.504 42.6507 138.677 42.3815 138.895 42.1618C139.117 41.9363 139.375 41.7565 139.669 41.6268C139.971 41.4915 140.292 41.4285 140.634 41.4285C140.92 41.4285 141.173 41.4785 141.399 41.5726C141.626 41.6763 141.814 41.8107 141.974 41.9812C142.124 42.1568 142.249 42.3634 142.329 42.6061C142.414 42.8443 142.454 43.1051 142.454 43.3927C142.454 43.6397 142.432 43.8686 142.383 44.0752C142.338 44.2822 142.267 44.4847 142.177 44.6825C142.089 44.8761 141.982 45.0777 141.853 45.2704C141.724 45.4733 141.577 45.6757 141.412 45.8954L139.545 48.4122C139.5 48.471 139.433 48.5202 139.349 48.5554C139.269 48.5966 139.179 48.6096 139.081 48.6096H138.308L140.63 45.7702Z" fill="#ED1C24"/>
<path d="M150.22 47.9854C150.453 47.9854 150.666 47.9401 150.861 47.846C151.058 47.7557 151.226 47.6394 151.369 47.4777C151.512 47.3244 151.622 47.1358 151.706 46.9208C151.783 46.7041 151.823 46.4752 151.823 46.2195C151.823 46.0208 151.795 45.8373 151.742 45.6798C151.689 45.5139 151.609 45.3829 151.507 45.2703C151.404 45.159 151.28 45.0776 151.138 45.0146C150.986 44.952 150.826 44.9201 150.647 44.9201C150.413 44.9201 150.203 44.9692 150.007 45.0645C149.812 45.159 149.647 45.2842 149.51 45.4417C149.367 45.6034 149.26 45.7873 149.18 45.999C149.104 46.2102 149.064 46.4345 149.064 46.673C149.064 46.8574 149.092 47.0371 149.14 47.1988C149.189 47.3563 149.265 47.4957 149.362 47.6121C149.455 47.7288 149.58 47.8229 149.723 47.8863C149.866 47.9493 150.034 47.9854 150.22 47.9854ZM150.238 44.1788C150.177 44.2548 150.115 44.3271 150.061 44.3943C150.007 44.4665 149.949 44.5337 149.892 44.6009C150.051 44.4938 150.23 44.4081 150.417 44.3544C150.599 44.3002 150.799 44.2687 151.004 44.2687C151.239 44.2687 151.457 44.309 151.662 44.3901C151.867 44.4753 152.045 44.5971 152.196 44.7496C152.347 44.902 152.467 45.0914 152.551 45.3203C152.641 45.545 152.686 45.7961 152.686 46.0888C152.686 46.4534 152.619 46.7986 152.49 47.1136C152.36 47.4327 152.182 47.7066 151.956 47.9443C151.734 48.174 151.467 48.3579 151.155 48.4932C150.844 48.6276 150.51 48.691 150.15 48.691C149.857 48.691 149.588 48.641 149.358 48.5423C149.122 48.4482 148.922 48.3088 148.762 48.1291C148.601 47.9493 148.477 47.7288 148.388 47.4777C148.299 47.2257 148.259 46.9426 148.259 46.6369C148.259 46.4261 148.282 46.2195 148.321 46.0258C148.362 45.828 148.432 45.6256 148.522 45.4236C148.606 45.2212 148.717 45.0146 148.85 44.8037C148.984 44.5971 149.144 44.377 149.332 44.1515L151.262 41.7161C151.307 41.6582 151.378 41.6086 151.457 41.5679C151.547 41.5317 151.635 41.5095 151.734 41.5095H152.49L150.238 44.1788Z" fill="#ED1C24"/>
<path d="M19.112 42.8581C18.1953 42.8581 17.4482 42.1026 17.4482 41.1723C17.4482 40.2463 18.1953 39.4916 19.112 39.4916C20.0328 39.4916 20.7757 40.2463 20.7757 41.1723C20.7757 42.1026 20.0328 42.8581 19.112 42.8581ZM32.8536 42.8581C31.9319 42.8581 31.1848 42.1026 31.1848 41.1723C31.1848 40.2463 31.9319 39.4916 32.8536 39.4916C33.7694 39.4916 34.5215 40.2463 34.5215 41.1723C34.5215 42.1026 33.7694 42.8581 32.8536 42.8581ZM8.94278 14.988C8.71039 15.3135 8.64886 15.7339 8.76401 16.1156L13.969 32.518C14.1386 33.0388 14.6183 33.3941 15.1617 33.3941H33.4805C33.6493 33.3941 33.8093 33.3579 33.9611 33.2907L35.1172 36.5489H15.1617C14.5826 36.5489 14.1207 37.0205 14.1207 37.5954C14.1207 38.1842 14.5826 38.6517 15.1617 38.6517H16.327C15.7308 39.3211 15.3662 40.2064 15.3662 41.1723C15.3662 43.2625 17.047 44.9613 19.112 44.9613C21.184 44.9613 22.8619 43.2625 22.8619 41.1723C22.8619 40.2064 22.4923 39.3211 21.8961 38.6517H30.0682C29.472 39.3211 29.1074 40.2064 29.1074 41.1723C29.1074 43.2625 30.7845 44.9613 32.8536 44.9613C34.9222 44.9613 36.603 43.2625 36.603 41.1723C36.603 40.2064 36.2376 39.3211 35.6327 38.6517H36.603C36.941 38.6517 37.2578 38.4854 37.4524 38.2065C37.6482 37.9234 37.6935 37.569 37.5775 37.2452L35.7042 31.9825C35.597 31.6772 35.3534 31.4576 35.0644 31.3538L41.5507 12.4871L46.8388 10.3864C47.4844 10.1323 47.7954 9.39989 47.5463 8.75271C47.2927 8.10344 46.5677 7.78636 45.9271 8.04044L40.0948 10.3524C39.7609 10.4872 39.4945 10.7635 39.3785 11.1096L32.5912 30.8726H16.0688L15.2058 28.1364H29.9039C30.5936 28.1364 31.1541 27.5728 31.1541 26.8761C31.1541 26.1794 30.5936 25.6154 29.9039 25.6154H14.4051L13.3728 22.3556H31.3636C32.0479 22.3556 32.6083 21.7894 32.6083 21.0927C32.6083 20.3985 32.0479 19.8345 31.3636 19.8345H12.5684L11.6696 16.9921H34.1032C34.7875 16.9921 35.3496 16.4277 35.3496 15.7339C35.3496 15.0325 34.7875 14.4685 34.1032 14.4685H9.95716C9.55598 14.4685 9.18224 14.6617 8.94278 14.988Z" fill="#ED1C24"/>
<path d="M47.3413 36.6834C43.5561 44.6552 35.4905 50.1652 26.176 50.1652C13.2297 50.1652 2.69595 39.5278 2.69595 26.4558C2.69595 13.3813 13.2297 2.74427 26.176 2.74427C31.7589 2.74427 36.8969 4.72864 40.9266 8.03128L43.4488 7.03176C38.6987 2.709 32.617 0.342468 26.176 0.342468C19.267 0.342468 12.7766 3.05884 7.89259 7.99097C3.01273 12.9231 0.321289 19.4822 0.321289 26.4558C0.321289 33.4345 3.01273 39.9864 7.89259 44.9202C12.7766 49.8511 19.267 52.5692 26.176 52.5692C33.0797 52.5692 39.5659 49.8511 44.4499 44.9202C46.8308 42.5163 48.6891 39.7214 49.9663 36.6834H47.3413Z" fill="#ED1C24"/>
<path fill-rule="evenodd" clip-rule="evenodd" d="M212.821 18.556H226.143V23.9106L220.387 28.4686H226.143V32.9043H212.558V27.7928L218.048 23.2341H212.806L212.821 18.556ZM193.086 18.5422H200.221V25.9437C200.221 26.685 200.394 27.2897 200.737 27.7613C201.085 28.233 201.462 28.4686 201.872 28.4686C202.295 28.4686 202.673 28.2489 203.011 27.8017C203.344 27.3548 203.509 26.7366 203.509 25.9437V18.5422H210.32V32.9043H203.634V31.5558C203.305 32.0505 202.619 32.4948 201.561 32.8812C200.502 33.2676 199.408 33.4612 198.27 33.4612C196.81 33.4612 195.582 33.0929 194.582 32.3604C193.585 31.623 193.086 30.4639 193.086 28.8894V18.5422ZM184.749 27.0533H190.927V32.9043H184.749V27.0533ZM168.295 19.1557C171.19 18.6681 173.588 18.4233 175.492 18.4233C179.976 18.4233 182.325 19.5938 182.556 21.9397V32.9043H175.679V27.2939C175.571 27.3972 175.314 27.5161 174.877 27.658C174.459 27.7975 174.113 27.905 173.841 27.973C173.258 28.1633 172.964 28.4488 172.964 28.8285C172.964 29.0032 173.08 29.1787 173.303 29.3652C173.534 29.5496 173.779 29.6441 174.042 29.6441C174.313 29.6441 174.629 29.5366 174.985 29.3274L174.042 33.1554C173.349 33.2814 172.605 33.3448 171.827 33.3448C170.056 33.3448 168.664 32.9303 167.645 32.1135C166.632 31.295 166.089 30.2837 166.026 29.0847C166.071 28.0041 166.311 27.1461 166.76 26.5186C167.209 25.8921 167.797 25.4242 168.535 25.1122C169.274 24.8069 170.189 24.5553 171.302 24.3772C172.422 24.1937 173.419 24.0383 174.29 23.9106C174.642 23.8812 174.935 23.7775 175.184 23.6066C175.43 23.4382 175.554 23.2677 175.554 23.1009C175.554 22.8993 175.416 22.7238 175.137 22.5751C174.846 22.434 174.425 22.3601 173.841 22.3601C172.298 22.3601 170.305 22.8137 167.85 23.7145L168.295 19.1557ZM157.361 18.5422H164.923L161.088 25.0089L165.697 32.9043H158.116L154.143 25.0089L157.361 18.5422ZM146.56 13.8645H153.695V32.9043H146.56V13.8645ZM126.284 18.5422H133.169V19.8344C133.703 19.2859 134.451 18.8391 135.412 18.4993C136.373 18.1558 137.369 17.9853 138.41 17.9853C139.175 17.9853 139.919 18.0844 140.621 18.2797C141.332 18.4703 141.969 18.7715 142.534 19.1713C143.094 19.5782 143.543 20.0973 143.873 20.7399C144.211 21.3803 144.389 22.151 144.397 23.0405V32.9043H137.263V25.4469C137.263 24.9165 137.107 24.4965 136.808 24.1819C136.506 23.8745 136.132 23.7145 135.692 23.7145C135.127 23.7145 134.62 23.9728 134.157 24.4877C133.709 25.0047 133.463 25.7392 133.418 26.6812V32.9043H126.284V18.5422ZM124.028 32.9043H117.156V18.5422H124.028V32.9043ZM117.156 13.3072H124.028V17.3696H117.156V13.3072ZM73.8828 25.6871C73.8558 26.3389 74.0745 26.955 74.4528 27.5367C74.8394 28.157 75.3466 28.4686 75.9735 28.4686C76.4454 28.4686 76.8815 28.2447 77.2956 27.7928C77.7138 27.3095 77.9225 26.6581 77.9225 25.8223C77.9225 25.0832 77.7437 24.418 77.3883 23.8426C77.0274 23.2677 76.5784 23.0014 76.0363 22.9821C75.1649 22.9514 73.9739 23.4705 73.8828 25.6871ZM72.9391 18.2998C74.1589 18.0457 75.2801 17.9269 76.2853 17.9269C78.598 17.9269 80.52 18.4888 82.0415 19.6232C83.5623 20.7575 84.5147 22.1396 84.8793 23.7775C85.0045 24.3394 85.0668 24.9328 85.0668 25.5636C85.0668 26.7076 84.8128 27.7975 84.301 28.8402C83.7889 29.8755 83.0198 30.7608 81.9879 31.4936C80.9561 32.2122 79.711 32.6838 78.2334 32.9043C76.9301 33.0706 76.0272 33.1554 75.5195 33.1554C73.7178 33.1554 72.1613 32.8052 70.8405 32.0996C69.5193 31.3941 68.5186 30.4731 67.8331 29.3274C67.1488 28.1813 66.81 26.9726 66.81 25.6871C66.81 24.1009 67.3396 22.623 68.3943 21.2522C69.4615 19.8768 70.9694 18.8882 72.9391 18.2998ZM58.3765 18.5422H65.9386L62.1051 25.0089L66.7127 32.9043H59.1331L55.1562 25.0089L58.3765 18.5422ZM47.5762 13.8645H54.7114V32.9043H47.5762V13.8645Z" fill="#ED1C24"/>
<path fill-rule="evenodd" clip-rule="evenodd" d="M87.5225 18.5322H94.227V19.6443C94.2706 19.6124 94.4843 19.4646 94.8888 19.1861C95.285 18.9094 95.6055 18.7053 95.8284 18.5772C96.0595 18.4487 96.3089 18.3319 96.5979 18.2441C96.8822 18.1564 97.1899 18.1098 97.5008 18.1098C97.9636 18.1098 98.3859 18.1728 98.7684 18.2895L99.2531 24.1426C98.7148 24.0234 98.1328 23.9633 97.5008 23.9633C95.7211 23.9633 94.7695 24.8637 94.6622 26.6704V32.8936H87.5225V18.5322Z" fill="#ED1C24"/>
<path fill-rule="evenodd" clip-rule="evenodd" d="M114.95 18.5457H101.251L101.638 23.2238H106.854L101.366 27.783V32.8936H114.95V28.4587H109.194L114.95 23.8999V18.5457Z" fill="#ED1C24"/>
</svg>
