<svg width="150" height="37" viewBox="0 0 150 37" fill="none" xmlns="http://www.w3.org/2000/svg">
<path fill-rule="evenodd" clip-rule="evenodd" d="M7.75912 4.97021C6.88949 4.97021 6.18263 5.67521 6.18263 6.54577C6.18263 7.41632 6.88949 8.12299 7.75912 8.12299C8.21837 8.12299 20.1862 8.12799 20.1862 8.12799L20.7097 9.47392C20.7097 9.47392 13.6104 9.47151 13.1697 9.47151C12.2941 9.47151 11.5824 10.1808 11.5824 11.0587C11.5824 11.9343 12.2941 12.6461 13.1697 12.6461C13.6045 12.6461 23.3645 12.6343 23.3645 12.6343L18.4241 27.256H23.7163L28.3063 13.4837C29.8025 8.98262 31.7343 7.09373 33.3513 7.10633C35.3204 7.12077 34.2563 9.64873 33.7726 11.0774L28.3173 27.256H33.5473L38.1649 13.4104C39.0945 10.5361 40.9319 7.13688 43.1854 7.10633C45.2591 7.07596 43.9573 10.065 43.6076 11.0858L38.0763 27.256H43.3687L49.388 9.50188C50.4123 6.53484 48.6204 4.54466 45.6837 4.54466C43.5647 4.54466 41.5558 5.63558 39.9482 7.3041C39.3606 5.6204 38.0628 4.58262 35.723 4.54466C34.2193 4.52188 32.908 5.03595 31.6854 5.76392C30.1682 2.61021 26.4428 0.469845 22.9767 0.469845H2.50819C1.63263 0.469845 0.925781 1.17577 0.925781 2.05207C0.925781 2.92522 1.63263 3.63281 2.50819 3.63281C3.008 3.63281 18.4241 3.62855 18.4241 3.62855L18.9636 4.97281C18.9636 4.97281 8.13319 4.97021 7.75912 4.97021ZM145.108 4.54466C142.985 4.54466 140.976 5.63558 139.372 7.3041C138.783 5.6204 137.484 4.58262 135.146 4.54466C133.065 4.51262 131.507 5.3941 130.055 6.73818L130.677 5.13577L125.433 5.1491L117.844 27.256H123.137L127.752 13.4104C129.188 9.10077 131.268 6.9891 132.772 7.10633C134.464 7.23651 134.034 8.61447 133.1 11.3813L127.741 27.256H132.971L137.585 13.4104C138.123 11.7504 139.039 9.72892 140.221 8.42614C140.928 7.64429 141.728 7.08355 142.607 7.10633C144.495 7.15447 143.66 9.23929 142.926 11.3813L137.497 27.256H142.787L148.791 9.56429C149.773 6.66392 148.116 4.54466 145.108 4.54466ZM59.3217 15.0745L57.1704 21.3565C56.2484 24.0456 54.6128 25.3604 53.2965 25.3265C52.6202 25.3097 51.9025 24.815 52.0697 23.7678L54.5867 16.9971C55.2604 15.3539 56.1089 14.6615 58.9941 14.6676C59.2197 14.6582 59.4215 14.7798 59.3217 15.0745ZM65.7287 11.2791C67.2813 6.66559 65.5032 4.5954 60.0986 4.60966C56.2728 4.61984 53.3826 6.87003 51.9236 10.9541H55.5476C56.7297 7.46688 57.6432 6.37095 59.6528 6.37947C62.728 6.3904 61.4841 8.43207 60.9506 10.1511L59.9263 13.1113C52.8508 13.455 50.4578 13.6113 48.4162 19.0176C48.0641 19.9506 47.7254 20.9421 47.4063 21.9678L47.218 23.0924C46.7934 25.656 48.5962 27.6006 51.6069 27.5261C53.1784 27.4882 54.7691 26.6632 55.6717 25.8071L55.0747 27.2947H60.2489L64.756 14.1754L65.7287 11.2791ZM66.1104 33.4797L67.8025 28.6273H63.4482L61.756 33.4797H66.1104ZM86.9074 27.256L91.6991 12.9661C92.4354 10.7945 94.3538 7.17984 96.5373 7.14521C98.1702 7.11818 97.493 9.29151 96.7923 11.3678L91.4332 27.256H96.7254L102.729 9.55244C103.654 6.82521 102.308 4.59873 99.0434 4.54466C97.1663 4.51336 95.3771 5.39911 93.8784 6.75003L94.3995 5.15688L89.2411 5.09762L81.6743 27.256H86.9074ZM104.991 27.8132C106.869 27.8132 108.658 26.9606 110.157 25.6078L109.636 27.2019L114.793 27.2619L122.361 5.10355H117.127L112.016 20.1998C111.282 22.3704 110.06 25.2961 107.457 25.3148C105.566 25.3284 106.525 23.1152 107.227 21.0382L112.601 5.10355H107.31L101.547 22.086C100.456 25.3123 102.089 27.8132 104.991 27.8132ZM78.0687 12.1547L74.6517 22.2228C74.048 24.0237 72.6693 25.3265 71.303 25.3265C68.3995 25.3265 71.3428 17.0469 71.7378 15.9315C72.3526 14.1963 74.3165 7.02355 76.9813 7.02355C78.7493 7.02355 79.2028 8.43281 78.0687 12.1547ZM80.4169 5.11466L79.8369 6.83373C79.1521 5.07818 77.8384 4.65781 76.5354 4.72614C71.9423 4.9667 68.971 9.33132 66.72 15.2906C64.6589 22.5293 65.065 27.4474 69.7445 27.6291C70.8836 27.673 72.1517 27.0811 73.2932 26.105L72.2808 29.1271C71.6595 30.9778 70.7256 34.8558 67.2495 34.921H61.2452L60.59 36.5302H67.4697C73.2586 36.5302 76.0112 33.4645 77.4515 29.2369L85.6578 5.14244L80.4169 5.11466Z" fill="#B6004B"/>
</svg>
