<svg width="157" height="157" viewBox="0 0 157 157" fill="none" xmlns="http://www.w3.org/2000/svg">
<path d="M86.1868 73.0315C76.6432 79.4715 45.6032 79.6674 35.8375 88.1014C26.0596 96.5365 28.6928 106.145 28.6928 106.145C28.6928 106.145 30.8826 100.565 36.9854 97.0581C49.892 89.6277 72.445 91.5823 84.8174 84.5031C97.2029 77.4237 95.3077 62.7836 95.3077 62.7836C95.3077 62.7836 95.117 66.9944 86.1868 73.0315Z" fill="url(#paint0_linear_69_233)"/>
<path d="M77.5952 93.1468C66.1354 97.2669 50.048 93.2644 39.6185 97.4497C29.1748 101.62 29.4356 109.873 29.4356 109.873C29.4356 109.873 30.4275 106.067 40.6744 104.02C44.8929 103.177 49.5592 103.354 54.3494 103.532C61.1772 103.786 68.2577 104.039 74.6615 101.334C85.5617 96.7195 85.9514 87.1758 85.9514 87.1758C85.9514 87.1758 85.0655 90.475 77.5952 93.1468Z" fill="url(#paint1_linear_69_233)"/>
<path d="M95.3521 43.8801C80.8679 59.7715 48.0145 57.425 32.591 73.6172C17.3905 89.5496 27.4023 102.43 27.4023 102.43C27.4023 102.43 25.6561 90.7742 40.805 82.7709C59.6957 72.7965 91.0238 72.1443 100.215 51.936C104.205 43.1633 101.858 37.3351 100.945 34.7019C100.137 37.3351 98.4818 40.4506 95.3521 43.8801Z" fill="url(#paint2_linear_69_233)"/>
<path fill-rule="evenodd" clip-rule="evenodd" d="M132.5 107.579H129.188V122.011H132.5V107.579Z" fill="#2B2A29"/>
<path fill-rule="evenodd" clip-rule="evenodd" d="M127.239 122.012V107.579H123.967V113.171H118.949V107.579H115.676V122.012H118.949V116.079H123.967V122.012H127.239Z" fill="#2B2A29"/>
<mask id="mask0_69_233" style="mask-type:luminance" maskUnits="userSpaceOnUse" x="0" y="0" width="157" height="157">
<path d="M0.333496 0.499993H156.334V156.5H0.333496V0.499993Z" fill="white"/>
</mask>
<g mask="url(#mask0_69_233)">
<path fill-rule="evenodd" clip-rule="evenodd" d="M114.301 117.045H110.768C110.011 118.57 108.825 119.325 107.209 119.325C105.983 119.325 104.979 118.87 104.183 117.944C103.375 117.017 102.971 115.949 102.971 114.71C102.971 113.473 103.375 112.416 104.157 111.555C104.953 110.682 105.956 110.252 107.182 110.252C108.773 110.252 109.972 111.034 110.768 112.611H114.274C113.791 110.955 112.932 109.652 111.666 108.714C110.402 107.774 108.903 107.305 107.182 107.305C105.096 107.305 103.323 108.022 101.863 109.458C100.402 110.891 99.6724 112.651 99.6724 114.736C99.6724 116.862 100.416 118.648 101.89 120.108C103.375 121.568 105.174 122.298 107.3 122.298C108.942 122.298 110.402 121.802 111.654 120.824C112.866 119.899 113.753 118.635 114.301 117.045Z" fill="#2B2A29"/>
<path fill-rule="evenodd" clip-rule="evenodd" d="M99.4567 110.487V107.579H89.4438V110.487H92.8221V122.012H96.0949V110.487H99.4567Z" fill="#2B2A29"/>
<path fill-rule="evenodd" clip-rule="evenodd" d="M84.5424 117.942C83.7206 118.876 82.7066 119.322 81.4787 119.322C80.2655 119.322 79.2611 118.876 78.4387 117.958C77.6333 117.056 77.2342 115.987 77.2342 114.774C77.2342 113.563 77.6333 112.509 78.4387 111.608C79.2611 110.722 80.2655 110.267 81.4787 110.267C82.7066 110.267 83.7124 110.714 84.5018 111.583C85.3006 112.453 85.7068 113.514 85.7068 114.758C85.7068 116.003 85.3169 117.056 84.5424 117.942ZM86.8393 109.445C85.3877 108.025 83.5925 107.308 81.4787 107.308C79.381 107.308 77.5937 108.025 76.1164 109.47C74.6498 110.905 73.915 112.677 73.915 114.774C73.915 116.873 74.6498 118.644 76.1164 120.104C77.5937 121.565 79.381 122.298 81.4787 122.298C83.5925 122.298 85.3877 121.565 86.8393 120.12C88.2841 118.676 89.0176 116.889 89.0176 114.774C89.0176 112.652 88.2841 110.881 86.8393 109.445Z" fill="#2B2A29"/>
<path fill-rule="evenodd" clip-rule="evenodd" d="M72.954 122.012V107.579H69.8899V117.083L63.9711 107.579H61.0249V122.012H64.1146V112.546L70.0726 122.012H72.954Z" fill="#2B2A29"/>
<path fill-rule="evenodd" clip-rule="evenodd" d="M51.3283 116.722L53.0036 111.551L54.6475 116.722H51.3283ZM54.32 107.579H51.6404L45.8872 122.011H49.4215L50.3713 119.402H55.5497L56.4738 122.011H60.0571L54.32 107.579Z" fill="#2B2A29"/>
<path fill-rule="evenodd" clip-rule="evenodd" d="M39.9989 117.942C39.1772 118.875 38.1561 119.321 36.9353 119.321C35.7232 119.321 34.7175 118.875 33.8953 117.958C33.0818 117.056 32.6837 115.987 32.6837 114.774C32.6837 113.562 33.0818 112.509 33.8953 111.608C34.7175 110.722 35.7232 110.266 36.9353 110.266C38.1561 110.266 39.162 110.714 39.9513 111.583C40.7487 112.453 41.1562 113.513 41.1562 114.758C41.1562 116.003 40.7652 117.056 39.9989 117.942ZM43.0713 119.178C43.9969 117.902 44.467 116.434 44.467 114.774C44.467 112.652 43.7406 110.881 42.2888 109.445C40.8452 108.024 39.0572 107.308 36.9353 107.308C34.8291 107.308 33.05 108.024 31.5741 109.469C30.0981 110.905 29.3716 112.677 29.3716 114.774C29.3716 116.873 30.0981 118.644 31.5741 120.104C33.05 121.565 34.8291 122.298 36.9353 122.298C38.4589 122.298 39.8477 121.884 41.0921 121.069C41.914 121.884 43.19 122.298 44.9222 122.298V119.545C44.2598 119.545 43.6454 119.434 43.0713 119.178Z" fill="#2B2A29"/>
</g>
<defs>
<linearGradient id="paint0_linear_69_233" x1="58.1242" y1="59.3388" x2="63.8738" y2="100.53" gradientUnits="userSpaceOnUse">
<stop stop-color="#EACB7C"/>
<stop offset="0.00642841" stop-color="#EACB7C"/>
<stop offset="1" stop-color="#C09A58"/>
</linearGradient>
<linearGradient id="paint1_linear_69_233" x1="51.9141" y1="60.2408" x2="57.9923" y2="101.433" gradientUnits="userSpaceOnUse">
<stop stop-color="#EACB7C"/>
<stop offset="0.00642841" stop-color="#EACB7C"/>
<stop offset="1" stop-color="#C09A58"/>
</linearGradient>
<linearGradient id="paint2_linear_69_233" x1="59.5687" y1="59.3772" x2="65.072" y2="100.528" gradientUnits="userSpaceOnUse">
<stop stop-color="#EACB7C"/>
<stop offset="0.00642841" stop-color="#EACB7C"/>
<stop offset="1" stop-color="#C09A58"/>
</linearGradient>
</defs>
</svg>
