<svg width="16" height="16" viewBox="0 0 13 12" fill="none" xmlns="http://www.w3.org/2000/svg">
<path d="M5.25 10.8125C5.25 10.9856 5.19868 11.1547 5.10254 11.2986C5.00639 11.4425 4.86973 11.5547 4.70985 11.6209C4.54996 11.6871 4.37403 11.7044 4.2043 11.6707C4.03456 11.6369 3.87865 11.5536 3.75628 11.4312C3.63391 11.3088 3.55057 11.1529 3.51681 10.9832C3.48305 10.8135 3.50038 10.6375 3.56661 10.4777C3.63283 10.3178 3.74498 10.1811 3.88888 10.085C4.03277 9.98882 4.20194 9.9375 4.375 9.9375C4.60706 9.9375 4.82962 10.0297 4.99372 10.1938C5.15781 10.3579 5.25 10.5804 5.25 10.8125ZM10.0625 9.9375C9.88944 9.9375 9.72027 9.98882 9.57638 10.085C9.43248 10.1811 9.32033 10.3178 9.25411 10.4777C9.18788 10.6375 9.17055 10.8135 9.20431 10.9832C9.23808 11.1529 9.32141 11.3088 9.44378 11.4312C9.56615 11.5536 9.72206 11.6369 9.8918 11.6707C10.0615 11.7044 10.2375 11.6871 10.3973 11.6209C10.5572 11.5547 10.6939 11.4425 10.79 11.2986C10.8862 11.1547 10.9375 10.9856 10.9375 10.8125C10.9375 10.5804 10.8453 10.3579 10.6812 10.1938C10.5171 10.0297 10.2946 9.9375 10.0625 9.9375ZM12.6684 3.06602L11.1081 8.13609C11.0264 8.40486 10.8602 8.64013 10.6342 8.80701C10.4083 8.97389 10.1345 9.06348 9.85359 9.0625H4.59758C4.31264 9.06143 4.03572 8.96809 3.80828 8.79645C3.58084 8.62481 3.41512 8.38411 3.33594 8.11039L1.35734 1.1875H0.4375C0.321468 1.1875 0.210188 1.14141 0.128141 1.05936C0.0460936 0.977312 0 0.866032 0 0.75C0 0.633968 0.0460936 0.522688 0.128141 0.440641C0.210188 0.358594 0.321468 0.3125 0.4375 0.3125H1.35734C1.54733 0.31313 1.73201 0.375275 1.88373 0.489632C2.03545 0.603988 2.14605 0.764407 2.19898 0.946875L2.6425 2.5H12.25C12.3185 2.49997 12.386 2.51602 12.4471 2.54684C12.5082 2.57766 12.5613 2.6224 12.602 2.67745C12.6427 2.73251 12.6699 2.79635 12.6814 2.86384C12.6929 2.93132 12.6885 3.00057 12.6684 3.06602ZM11.6577 3.375H2.89242L4.17703 7.87031C4.20317 7.96169 4.25834 8.04206 4.33422 8.09929C4.41009 8.15652 4.50254 8.18748 4.59758 8.1875H9.85359C9.94721 8.18753 10.0384 8.15754 10.1137 8.10192C10.189 8.04631 10.2445 7.968 10.272 7.87852L11.6577 3.375Z" fill="black"/>
</svg>
