<svg width="16" height="16" viewBox="0 0 12 12" fill="none" xmlns="http://www.w3.org/2000/svg">
<path d="M7.11996 3.66667C6.83996 2.01 5.39913 0.75 3.66663 0.75C1.73579 0.75 0.166626 2.31917 0.166626 4.25C0.166626 5.9825 1.42663 7.42333 3.08329 7.70333V11.25H4.24996V7.6975C4.24996 7.12583 3.83579 6.6475 3.27579 6.54833C2.85366 6.47692 2.45932 6.29072 2.13597 6.01011C1.81261 5.72951 1.57272 5.36533 1.44256 4.95746C1.3124 4.5496 1.29699 4.11378 1.39803 3.69774C1.49907 3.2817 1.71265 2.90149 2.01539 2.59876C2.31812 2.29602 2.69833 2.08244 3.11437 1.9814C3.5304 1.88037 3.96622 1.89577 4.37409 2.02593C4.78196 2.15609 5.14614 2.39599 5.42674 2.71934C5.70734 3.04269 5.89355 3.43703 5.96496 3.85917C6.06413 4.41917 6.54246 4.83333 7.11413 4.83333H9.59913L8.67163 5.76083L9.49996 6.58333L11.8333 4.25L9.49996 1.91667L8.67746 2.73917L9.59913 3.66667H7.11996Z" fill="black"/>
</svg>
