<svg width="16" height="16" viewBox="0 0 12 12" fill="none" xmlns="http://www.w3.org/2000/svg">
<path d="M5.41663 4.24999H6.58329V3.08332H5.41663M5.99996 10.6667C3.42746 10.6667 1.33329 8.57249 1.33329 5.99999C1.33329 3.42749 3.42746 1.33332 5.99996 1.33332C8.57246 1.33332 10.6666 3.42749 10.6666 5.99999C10.6666 8.57249 8.57246 10.6667 5.99996 10.6667ZM5.99996 0.166656C5.23392 0.166656 4.47537 0.31754 3.76764 0.610693C3.05991 0.903845 2.41685 1.33353 1.87517 1.8752C0.781208 2.96916 0.166626 4.45289 0.166626 5.99999C0.166626 7.54709 0.781208 9.03082 1.87517 10.1248C2.41685 10.6665 3.05991 11.0961 3.76764 11.3893C4.47537 11.6824 5.23392 11.8333 5.99996 11.8333C7.54706 11.8333 9.03079 11.2187 10.1247 10.1248C11.2187 9.03082 11.8333 7.54709 11.8333 5.99999C11.8333 5.23395 11.6824 4.4754 11.3893 3.76767C11.0961 3.05994 10.6664 2.41688 10.1247 1.8752C9.58307 1.33353 8.94001 0.903845 8.23228 0.610693C7.52455 0.31754 6.766 0.166656 5.99996 0.166656ZM5.41663 8.91666H6.58329V5.41666H5.41663V8.91666Z" fill="black"/>
</svg>
