<svg width="16" height="16" viewBox="0 0 12 12" fill="none" xmlns="http://www.w3.org/2000/svg">
<path d="M11.1609 7.66579L8.58454 6.51134L8.57743 6.50806C8.44368 6.45085 8.29778 6.4279 8.15292 6.44126C8.00807 6.45463 7.86884 6.5039 7.74782 6.58462C7.73357 6.59403 7.71987 6.60426 7.7068 6.61525L6.37571 7.75001C5.53243 7.3404 4.6618 6.47634 4.25219 5.644L5.3886 4.29267C5.39954 4.279 5.40993 4.26532 5.41977 4.25056C5.49875 4.12986 5.54668 3.99152 5.55927 3.84783C5.57186 3.70413 5.54874 3.55956 5.49196 3.42696V3.4204L4.33422 0.839699C4.25916 0.666484 4.13009 0.522191 3.96628 0.428361C3.80247 0.33453 3.61271 0.296193 3.42532 0.319074C2.68429 0.416585 2.00409 0.78051 1.51177 1.34288C1.01944 1.90524 0.748665 2.62759 0.750005 3.37501C0.750005 7.7172 4.28282 11.25 8.625 11.25C9.37242 11.2514 10.0948 10.9806 10.6571 10.4883C11.2195 9.99593 11.5834 9.31573 11.6809 8.5747C11.7039 8.38737 11.6656 8.19766 11.5719 8.03386C11.4782 7.87005 11.334 7.74095 11.1609 7.66579ZM8.625 10.375C6.76911 10.373 4.98981 9.63484 3.6775 8.32252C2.36518 7.0102 1.62703 5.23091 1.625 3.37501C1.62295 2.84098 1.81535 2.32446 2.16627 1.92191C2.51719 1.51936 3.00264 1.25831 3.53196 1.18751C3.53174 1.18969 3.53174 1.19189 3.53196 1.19407L4.6804 3.76439L3.55 5.11736C3.53853 5.13056 3.52811 5.14464 3.51883 5.15946C3.43654 5.28575 3.38826 5.43115 3.37868 5.58158C3.3691 5.732 3.39854 5.88236 3.46415 6.01806C3.95961 7.03142 4.98063 8.04478 6.00493 8.5397C6.14163 8.60469 6.29285 8.63312 6.44382 8.62219C6.59479 8.61126 6.74034 8.56136 6.86625 8.47736C6.8803 8.4679 6.89381 8.45767 6.90672 8.44673L8.23618 7.31251L10.8065 8.46368H10.8125C10.7426 8.99375 10.4819 9.48018 10.0793 9.83197C9.67666 10.1838 9.15966 10.3768 8.625 10.375Z" fill="black"/>
</svg>
