<svg width="16" height="16" viewBox="0 0 14 14" fill="none" xmlns="http://www.w3.org/2000/svg">
<path d="M6.55378 1.38483C6.33911 1.4735 6.14719 1.666 5.76278 2.04983C5.37836 2.43483 5.18586 2.62675 5.09778 2.84083C5.03913 2.9824 5.00894 3.13414 5.00894 3.28737C5.00894 3.44061 5.03913 3.59235 5.09778 3.73391C5.18586 3.94858 5.37778 4.1405 5.76278 4.52491C6.14661 4.90933 6.33911 5.10183 6.55378 5.18991C6.83952 5.30821 7.16054 5.30821 7.44628 5.18991C7.66094 5.10183 7.85286 4.90991 8.23728 4.52491C8.62228 4.1405 8.81361 3.94858 8.90228 3.73391C9.02057 3.44817 9.02057 3.12716 8.90228 2.84141C8.81361 2.62675 8.62228 2.43483 8.23728 2.05041C7.85286 1.66541 7.66094 1.4735 7.44628 1.38483C7.16054 1.26654 6.83952 1.26654 6.55378 1.38483ZM2.84086 5.09716C2.62678 5.18583 2.43428 5.37775 2.05044 5.76216C1.66544 6.14716 1.47353 6.33908 1.38486 6.55316C1.32621 6.69473 1.29602 6.84647 1.29602 6.99971C1.29602 7.15294 1.32621 7.30468 1.38486 7.44625C1.47353 7.66091 1.66603 7.85283 2.04986 8.23725C2.43486 8.62166 2.62678 8.81358 2.84086 8.90225C2.98243 8.9609 3.13416 8.99109 3.2874 8.99109C3.44064 8.99109 3.59237 8.9609 3.73394 8.90225C3.94861 8.81358 4.14053 8.62166 4.52494 8.23725C4.90994 7.85283 5.10128 7.66091 5.18994 7.44625C5.30823 7.16051 5.30823 6.83949 5.18994 6.55375C5.10128 6.33908 4.90994 6.14658 4.52494 5.76216C4.14053 5.37775 3.94861 5.18583 3.73394 5.09716C3.4482 4.97887 3.1266 4.97887 2.84086 5.09716ZM9.47511 5.76216C9.09069 6.14716 8.89878 6.33908 8.81011 6.55316C8.75146 6.69473 8.72127 6.84647 8.72127 6.99971C8.72127 7.15294 8.75146 7.30468 8.81011 7.44625C8.89878 7.66091 9.09069 7.85283 9.47511 8.23725C9.85953 8.62166 10.052 8.81358 10.2661 8.90225C10.5519 9.02054 10.8729 9.02054 11.1586 8.90225C11.3733 8.81358 11.5658 8.62166 11.9502 8.23725C12.3346 7.85283 12.5259 7.66091 12.6152 7.44625C12.7335 7.16051 12.7335 6.83949 12.6152 6.55375C12.5259 6.33908 12.3346 6.14658 11.9502 5.76216C11.5652 5.37775 11.3733 5.18583 11.1592 5.09716C11.0176 5.03851 10.8659 5.00832 10.7127 5.00832C10.5594 5.00832 10.4077 5.03851 10.2661 5.09716C10.052 5.18583 9.85953 5.37775 9.47511 5.76216ZM6.55378 8.8095C6.33911 8.89816 6.14719 9.09066 5.76278 9.4745C5.37836 9.8595 5.18586 10.0514 5.09778 10.2661C4.97949 10.5518 4.97949 10.8728 5.09778 11.1586C5.18586 11.3732 5.37778 11.5652 5.76278 11.9496C6.14661 12.334 6.33911 12.5265 6.55378 12.6146C6.83952 12.7329 7.16054 12.7329 7.44628 12.6146C7.66094 12.5265 7.85286 12.3346 8.23728 11.9496C8.62228 11.5652 8.81361 11.3732 8.90228 11.1586C9.02069 10.8727 9.02069 10.5519 8.90228 10.2661C8.81361 10.0514 8.62228 9.85891 8.23728 9.47508C7.85286 9.09008 7.66094 8.89816 7.44628 8.8095C7.16054 8.69121 6.83952 8.69121 6.55378 8.8095Z" stroke="black" stroke-width="0.7" stroke-linecap="round" stroke-linejoin="round"/>
</svg>
