<svg width="16" height="16" viewBox="0 0 14 14" fill="none" xmlns="http://www.w3.org/2000/svg">
<path d="M13.49 9.59999C13.4542 9.26552 13.3176 8.94982 13.0983 8.69471C12.879 8.43961 12.5874 8.25714 12.2621 8.17148C11.9368 8.08581 11.5932 8.101 11.2767 8.21503C10.9602 8.32906 10.6859 8.53654 10.49 8.80999L9.48998 7.80999C9.48998 7.80999 9.40998 7.75999 9.37998 7.72999C9.73184 6.72321 9.78889 5.63688 9.54442 4.59878C9.29996 3.56067 8.76413 2.61396 7.99998 1.86999C7.6111 1.444 7.1377 1.10374 6.60997 0.870939C6.08224 0.638136 5.51178 0.517899 4.93498 0.517899C4.35818 0.517899 3.78772 0.638136 3.25999 0.870939C2.73226 1.10374 2.25885 1.444 1.86998 1.86999C1.44278 2.2569 1.10065 2.72836 0.865274 3.25447C0.629897 3.78057 0.506413 4.34985 0.502652 4.9262C0.498891 5.50255 0.614936 6.07339 0.843427 6.60253C1.07192 7.13166 1.40787 7.60754 1.82998 7.99999C2.58895 8.7864 3.56215 9.3326 4.62879 9.57082C5.69543 9.80903 6.80855 9.72877 7.82998 9.33999C7.82807 9.36663 7.82807 9.39336 7.82998 9.41999L8.99998 10.58C8.79602 10.752 8.63738 10.9714 8.538 11.219C8.43862 11.4665 8.40153 11.7347 8.42998 12C8.47507 12.4389 8.69267 12.842 9.03493 13.1205C9.37718 13.399 9.81605 13.5301 10.255 13.485C10.6939 13.4399 11.097 13.2223 11.3754 12.88C11.6539 12.5378 11.7851 12.0989 11.74 11.66C11.7281 11.5889 11.7114 11.5188 11.69 11.45H12C12.2208 11.4302 12.4354 11.3662 12.6309 11.2616C12.8265 11.1571 12.9989 11.0142 13.138 10.8415C13.2771 10.6689 13.3799 10.4699 13.4404 10.2566C13.5009 10.0433 13.5177 9.81997 13.49 9.59999Z" stroke="black" stroke-linecap="round" stroke-linejoin="round"/>
</svg>
